<svg xmlns="http://www.w3.org/2000/svg" viewBox="0 0 200 200" fill="none">
  <rect width="200" height="200" rx="10" fill="#0F172A"/>
  <rect x="30" y="30" width="140" height="140" rx="70" fill="#1E293B"/>
  <path d="M100 40C67.9086 40 42 65.9086 42 98C42 130.091 67.9086 156 100 156C132.091 156 158 130.091 158 98C158 65.9086 132.091 40 100 40Z" stroke="#0EA5E9" stroke-width="4"/>
  <path d="M100 50C73.4903 50 52 71.4903 52 98C52 124.51 73.4903 146 100 146C126.51 146 148 124.51 148 98C148 71.4903 126.51 50 100 50Z" stroke="#0EA5E9" stroke-width="2"/>
  <path d="M100 70C84.536 70 72 82.536 72 98C72 113.464 84.536 126 100 126C115.464 126 128 113.464 128 98C128 82.536 115.464 70 100 70Z" fill="#0EA5E9" fill-opacity="0.2"/>
  <path d="M100 80C90.0589 80 82 88.0589 82 98C82 107.941 90.0589 116 100 116C109.941 116 118 107.941 118 98C118 88.0589 109.941 80 100 80Z" fill="#0EA5E9" fill-opacity="0.4"/>
  <path d="M100 90C95.5817 90 92 93.5817 92 98C92 102.418 95.5817 106 100 106C104.418 106 108 102.418 108 98C108 93.5817 104.418 90 100 90Z" fill="#0EA5E9"/>
  <path d="M100 40V98" stroke="#0EA5E9" stroke-width="2"/>
  <path d="M158 98H100" stroke="#0EA5E9" stroke-width="2"/>
  <path d="M100 156V98" stroke="#0EA5E9" stroke-width="2"/>
  <path d="M42 98H100" stroke="#0EA5E9" stroke-width="2"/>
</svg>
